<?xml version="1.0" encoding="UTF-8"?>
<svg id="Layer_2" data-name="Layer 2" xmlns="http://www.w3.org/2000/svg" viewBox="0 0 357.33 183.76">
  <defs>
    <style>
      .cls-1 {
        fill: #1bb680;
      }

      .cls-2 {
        fill: #f47e52;
      }
    </style>
  </defs>
  <g id="Layer_1-2" data-name="Layer 1">
    <g>
      <path class="cls-1" d="M76.39,169.22l-5.13-13.48H27.61l-5.13,13.77c-2,5.37-3.71,9-5.13,10.88-1.42,1.88-3.74,2.82-6.96,2.82-2.74,0-5.15-1-7.25-3-2.1-2-3.15-4.27-3.15-6.81,0-1.46.24-2.98.73-4.54.49-1.56,1.29-3.74,2.42-6.52l27.47-69.73c.78-2,1.72-4.41,2.82-7.21,1.1-2.81,2.27-5.14,3.52-6.99,1.25-1.85,2.88-3.36,4.91-4.5,2.03-1.15,4.53-1.72,7.51-1.72s5.55.57,7.58,1.72c2.03,1.15,3.66,2.63,4.91,4.43,1.25,1.81,2.29,3.75,3.15,5.82.85,2.08,1.94,4.85,3.26,8.31l28.05,69.29c2.2,5.27,3.3,9.11,3.3,11.5s-1.04,4.77-3.11,6.85c-2.08,2.07-4.58,3.11-7.51,3.11-1.71,0-3.17-.31-4.39-.92-1.22-.61-2.25-1.44-3.08-2.49-.83-1.05-1.72-2.66-2.67-4.83-.95-2.17-1.77-4.09-2.45-5.75ZM33.33,139.41h32.08l-16.19-44.31-15.89,44.31Z"/>
      <path class="cls-1" d="M234.59,174.06l-17.65-29-10.84,10.25v15.89c0,3.86-1.01,6.82-3.04,8.9-2.03,2.07-4.36,3.11-7,3.11-3.08,0-5.49-1.03-7.25-3.08s-2.64-5.08-2.64-9.08v-85.25c0-4.44.85-7.82,2.56-10.14,1.71-2.32,4.15-3.48,7.32-3.48s5.52,1.05,7.32,3.15c1.81,2.1,2.71,5.2,2.71,9.3v48.49l22.49-23.58c2.78-2.93,4.91-4.93,6.37-6.01,1.46-1.07,3.25-1.61,5.35-1.61,2.49,0,4.57.79,6.23,2.38,1.66,1.59,2.49,3.58,2.49,5.97,0,2.93-2.71,6.84-8.13,11.72l-10.62,9.74,20.51,32.23c1.51,2.39,2.6,4.21,3.26,5.46.66,1.25.99,2.43.99,3.55,0,3.17-.87,5.68-2.6,7.51-1.73,1.83-4.02,2.75-6.85,2.75-2.44,0-4.32-.66-5.64-1.98s-3.1-3.71-5.35-7.18Z"/>
      <path class="cls-2" d="M272.95,103.5c-6.7.12-11.92-7.14-9.06-13.4,2.86-7.31,14.15-8.34,17.95-1.32,3.83,6.42-1.17,14.94-8.69,14.72h-.2ZM284.5,140.05c-.33,8.17-.32,22.94-.49,30.51.47,8.91-4.75,16.07-13.94,11.12-5.44-3.41-5.93-13.99-6.1-20,.19-7.75-1.86-24.92-.43-36.75,1.2-5.27,4.72-9.69,8.23-11.4,2.55-1.18,5.42-1.25,8.23-1.46,6.01-.23,17.18.26,20.83,5.4,1.28,2.32,2.06,9.26-.54,10.71-.57.32-1.29.43-1.97.5-6.91.4-13.34,2.62-13.78,11.17l-.02.2Z"/>
      <path class="cls-2" d="M305.69,171.05v-86.72c0-4,.89-7.03,2.67-9.08s4.19-3.08,7.21-3.08,5.47,1.01,7.32,3.04c1.86,2.03,2.78,5.07,2.78,9.12v86.72c0,4.05-.94,7.09-2.82,9.12s-4.31,3.04-7.29,3.04-5.31-1.05-7.14-3.15c-1.83-2.1-2.75-5.1-2.75-9.01Z"/>
      <path class="cls-1" d="M347.44,92.61c-2.78,0-5.16-.85-7.14-2.56-1.98-1.71-2.97-4.13-2.97-7.25,0-2.83,1.01-5.16,3.04-6.99,2.03-1.83,4.38-2.75,7.07-2.75s4.88.83,6.88,2.49c2,1.66,3,4.08,3,7.25s-.98,5.48-2.93,7.21c-1.95,1.73-4.27,2.6-6.96,2.6ZM357.33,113.27v57.79c0,4-.95,7.03-2.86,9.08s-4.32,3.08-7.25,3.08-5.31-1.05-7.14-3.15c-1.83-2.1-2.75-5.1-2.75-9.01v-57.2c0-3.96.92-6.93,2.75-8.94,1.83-2,4.21-3,7.14-3s5.35,1,7.25,3c1.9,2,2.86,4.79,2.86,8.35Z"/>
      <path class="cls-2" d="M130.29,171.05v-86.72c0-4-.89-7.03-2.67-9.08s-4.19-3.08-7.21-3.08-5.47,1.01-7.32,3.04c-1.86,2.03-2.78,5.07-2.78,9.12v86.72c0,4.05.94,7.09,2.82,9.12s4.31,3.04,7.29,3.04,5.31-1.05,7.14-3.15c1.83-2.1,2.75-5.1,2.75-9.01Z"/>
      <path class="cls-1" d="M158.67,62.06l6.07-13.01c-1.71-.6-15.25-5.61-17.79-17.14-1.21-5.47.6-9.96,1.13-11.23C154,6.55,176.46.57,191.97.04c17.21-.59,43.14,4.96,47.67,19.77,1.79,5.87-.41,11.13-1.06,12.61-6.25,14.34-29.77,22.44-58.54,21.27-7.12,2.79-14.24,5.57-21.36,8.36Z"/>
      <path class="cls-2" d="M268.88,77.33l-6.29-11.84c1.55-.65,13.81-6,15.57-16.88.83-5.16-1.07-9.27-1.63-10.42-6.2-12.89-27.28-17.36-41.66-17.08-15.95.31-39.66,6.77-43.07,20.82-1.36,5.57.96,10.37,1.63,11.72,6.53,13.07,28.7,19.46,55.26,16.95,6.73,2.25,13.46,4.49,20.19,6.74Z"/>
      <path class="cls-2" d="M153.69,140.51c1.15,11.48.62,24.14.49,30.51-.18,8.92,4.75,16.07,13.94,11.12,5.44-3.41,5.93-13.99,6.1-20-.19-7.75,1.86-24.92.43-36.75-1.2-5.27-4.72-9.69-8.23-11.4-2.55-1.18-5.42-1.25-8.23-1.46-6.01-.23-17.18.26-20.83,5.4-1.28,2.32-2.06,9.26.54,10.71.57.32,1.29.43,1.97.5,6.91.4,13.34,2.62,13.78,11.17l.02.2Z"/>
    </g>
  </g>
</svg>